<?xml version="1.0" encoding="utf-8"?>
<!-- Generator: Adobe Illustrator 28.1.0, SVG Export Plug-In . SVG Version: 6.00 Build 0)  -->
<svg version="1.1" id="Layer_1" xmlns="http://www.w3.org/2000/svg" xmlns:xlink="http://www.w3.org/1999/xlink" x="0px" y="0px"
	 viewBox="0 0 512 512" style="enable-background:new 0 0 512 512;" xml:space="preserve">
<g>
	<path d="M506,256.5c0,139.4-110.9,249.6-251,249.6C116,506.1,5.9,394.9,6,254.5C6.1,116.2,117.6,5.8,257,5.9
		C395.7,6,506,117,506,256.5z M235.8,486.8c-7.7-2.4-13.2-3.9-18.7-5.8c-19.6-6.8-37.2-16.7-51.6-32
		c-36.2-38.4-42.8-129.4,26.3-174.1c22.7-14.7,48-17.7,74.1-19.9c60.7-5,103.8-51,106.8-112.1c2.8-56.2-37.8-107.4-94.8-117.6
		c-42.6-7.6-83.8,0.1-122.3,19.2C76.7,83.7,12.1,170.2,24,284.2C35.9,398.3,130.6,477.9,235.8,486.8z M289.2,372.6
		c0-18.1-15-33-33.1-33.2c-18.2-0.1-33.4,14.8-33.4,32.9c0,18.8,15.1,33.9,33.6,33.7C274.6,405.8,289.3,390.9,289.2,372.6z"/>
	<path d="M289.2,139c0.1,18.6-14.3,33.3-32.7,33.5c-19.1,0.2-33.8-14.5-33.7-33.6c0-18.6,14.5-32.9,33.3-32.9
		C274.4,106,289.1,120.5,289.2,139z"/>
</g>
</svg>
